<svg version="1.1" id="Layer_1" xmlns="http://www.w3.org/2000/svg" xmlns:xlink="http://www.w3.org/1999/xlink" x="0px" y="0px"
	 width="100%" viewBox="0 0 400 400" enable-background="new 0 0 400 400" xml:space="preserve">
<path fill="#FCFCFC" opacity="1.000000" stroke="none" 
	d="
M401.000000,132.000000 
	C401.000000,222.000000 401.000000,311.500000 401.000000,401.000000 
	C267.666656,401.000000 134.333328,401.000000 1.000000,401.000000 
	C1.000000,267.666656 1.000000,134.333328 1.000000,1.000000 
	C134.333328,1.000000 267.666656,1.000000 401.000000,1.000000 
	C401.000000,44.500000 401.000000,88.000000 401.000000,132.000000 
M5.918759,221.244049 
	C21.944939,221.172607 37.971115,221.101166 54.687778,221.187927 
	C54.860630,220.092148 55.033482,218.996368 55.314674,217.020721 
	C55.133839,215.116547 54.953007,213.212357 54.802177,211.624115 
	C37.632664,211.624115 20.975435,211.624115 4.162127,211.624115 
	C4.162127,214.763016 4.162127,217.393570 4.089309,220.600266 
	C4.394369,220.741180 4.699428,220.882095 5.918759,221.244049 
M348.916382,190.262527 
	C365.161469,190.262527 381.406555,190.262527 397.726990,190.262527 
	C397.726990,186.535828 397.726990,183.475113 397.726990,180.352814 
	C380.388367,180.352814 363.327026,180.352814 345.945343,180.352814 
	C346.352936,183.441727 346.720642,186.228470 347.038116,189.606827 
	C347.360565,189.746567 347.683014,189.886292 348.916382,190.262527 
M345.421967,226.976349 
	C345.300690,227.313965 345.179413,227.651566 344.719299,228.712494 
	C344.352264,230.774506 343.985199,232.836502 343.404633,235.913177 
	C343.998413,236.136887 344.592224,236.360596 346.076935,236.795975 
	C357.488586,236.795975 368.900238,236.795975 380.293854,236.795975 
	C380.522217,239.270081 380.682861,241.010254 380.828339,242.586121 
	C367.580231,242.586121 354.544495,242.586121 341.365814,242.586121 
	C340.859711,244.111694 340.343079,245.686554 339.815125,247.257584 
	C311.272675,332.191895 213.201294,372.072723 133.740219,330.721436 
	C98.498505,312.381744 74.592369,283.953369 61.711582,246.284760 
	C61.155205,244.657684 59.294865,242.340927 57.972034,242.293442 
	C48.490204,241.953094 38.989223,242.039490 29.496586,242.163315 
	C26.041794,242.208374 22.593153,242.724945 18.742487,243.061249 
	C20.757778,237.778732 23.788424,236.534317 28.407913,236.698013 
	C37.879086,237.033615 47.375282,236.662933 57.867554,236.615784 
	C57.997662,236.052887 58.127773,235.489990 58.232628,234.088196 
	C57.740917,231.702133 57.249203,229.316071 56.768318,226.982529 
	C42.247181,226.982529 28.125305,226.982529 13.282534,226.891937 
	C12.925151,227.191055 12.567768,227.490189 11.384952,227.693680 
	C9.061238,227.693680 6.737525,227.693680 4.220577,227.693680 
	C4.220577,270.789917 4.220577,313.689117 4.220577,357.009064 
	C39.489746,357.009064 74.546341,357.009064 110.033279,357.009064 
	C110.033279,368.156708 110.033279,378.893585 110.033279,389.773010 
	C170.511871,389.773010 230.556534,389.773010 291.034851,389.773010 
	C291.034851,378.823639 291.034851,368.086914 291.034851,356.935913 
	C317.192139,356.935913 342.919586,356.935913 369.062744,356.935913 
	C369.062744,321.789490 369.062744,287.066132 369.062744,251.912125 
	C378.879333,251.912125 388.282013,251.912125 397.672577,251.912125 
	C397.672577,243.419449 397.672577,235.364975 397.672577,227.018982 
	C380.232941,227.018982 363.114990,227.018982 345.421967,226.976349 
M344.365631,164.727402 
	C344.173431,165.517181 343.981232,166.306961 343.696594,167.830475 
	C343.884064,168.542938 344.071533,169.255386 344.199768,170.721680 
	C344.736908,172.755493 344.281158,175.766388 348.962585,174.781448 
	C361.960999,174.735703 374.959442,174.689972 388.786621,174.656143 
	C390.658539,174.232941 392.549896,173.879196 394.395386,173.361725 
	C395.592499,173.026031 396.722595,172.451370 397.983643,171.053391 
	C397.983643,149.130325 397.983643,127.207268 397.983643,104.855095 
	C388.042969,104.855095 378.638397,104.855095 368.829834,104.855095 
	C368.829834,73.366859 368.829834,42.310020 368.829834,11.248198 
	C247.058670,11.248198 125.708267,11.248198 4.300241,11.248198 
	C4.300241,65.520851 4.300241,119.550179 4.300241,174.191483 
	C21.961086,174.191483 39.328423,174.191483 56.934513,174.191483 
	C57.294746,171.920029 57.682636,169.474167 58.496174,166.533493 
	C57.995159,165.992340 57.494148,165.451202 56.080513,164.681305 
	C44.820778,164.681305 33.561043,164.681305 22.318974,164.681305 
	C21.905920,162.556870 21.571600,160.837402 21.227005,159.065063 
	C33.899445,159.065063 46.444565,159.065063 59.525116,159.216110 
	C59.676487,159.108978 59.827854,159.001862 60.662159,158.631226 
	C81.673836,91.668907 142.817749,49.994064 212.791092,54.942268 
	C270.381531,59.014812 321.234589,98.751198 339.814606,154.157578 
	C340.366638,155.803711 341.273071,157.331024 342.478912,159.216934 
	C342.656586,159.165634 342.834259,159.114334 343.927673,159.272675 
	C356.841888,159.272675 369.756104,159.272675 382.862427,159.272675 
	C381.849518,160.890152 381.002228,162.243179 379.363434,163.733688 
	C379.006592,164.122208 378.649750,164.510742 377.464142,164.701752 
	C366.645020,164.771545 355.825867,164.841339 344.365631,164.727402 
M305.931946,106.571915 
	C271.281982,69.577034 228.582932,53.709541 178.663651,61.613884 
	C98.083710,74.373108 46.681534,150.328766 62.981007,230.424347 
	C78.318138,305.791016 156.119019,355.832642 231.112198,338.566589 
	C336.896759,314.211273 377.728912,188.677734 305.931946,106.571915 
M3.997269,187.424286 
	C5.118323,188.381195 6.192532,190.090973 7.368574,190.164154 
	C12.343965,190.473709 17.349646,190.296997 22.344252,190.297150 
	C33.120003,190.297470 43.895752,190.297241 54.789509,190.297241 
	C55.172112,186.739243 55.502838,183.663666 55.857697,180.363647 
	C38.556164,180.363647 21.488287,180.363647 3.996830,180.363647 
	C3.996830,182.558655 3.996830,184.514587 3.997269,187.424286 
M397.710541,212.011932 
	C394.949799,211.712570 392.190582,211.171753 389.428101,211.154480 
	C375.346802,211.066483 361.264648,211.113861 347.026367,211.113861 
	C346.674286,214.659393 346.369202,217.731613 346.063019,220.815125 
	C363.592163,220.815125 380.739288,220.815125 397.983643,220.815125 
	C397.983643,217.868683 397.983643,215.381165 397.710541,212.011932 
M362.503510,195.614334 
	C357.566528,195.614334 352.629547,195.614334 347.550964,195.614334 
	C347.550964,199.259918 347.550964,202.332230 347.550964,205.477676 
	C364.490875,205.477676 381.164734,205.477676 397.710999,205.477676 
	C397.710999,201.999191 397.710999,198.899277 397.710999,195.614273 
	C386.113953,195.614273 374.807983,195.614273 362.503510,195.614334 
M34.499962,195.614334 
	C24.415527,195.614334 14.331091,195.614334 4.372390,195.614334 
	C4.372390,199.447235 4.372390,202.500809 4.372390,205.476624 
	C21.302427,205.476624 37.854343,205.476624 54.290321,205.476624 
	C54.290321,202.022934 54.290321,198.961563 54.290321,195.614273 
	C47.800407,195.614273 41.650074,195.614273 34.499962,195.614334 
z"/>
<path fill="#292B32" opacity="1.000000" stroke="none" 
	d="
M58.070526,167.028305 
	C57.682636,169.474167 57.294746,171.920029 56.934513,174.191483 
	C39.328423,174.191483 21.961086,174.191483 4.300241,174.191483 
	C4.300241,119.550179 4.300241,65.520851 4.300241,11.248198 
	C125.708267,11.248198 247.058670,11.248198 368.829834,11.248198 
	C368.829834,42.310020 368.829834,73.366859 368.829834,104.855095 
	C378.638397,104.855095 388.042969,104.855095 397.983643,104.855095 
	C397.983643,127.207268 397.983643,149.130325 397.507812,171.546448 
	C394.007294,172.907761 390.982574,173.776001 387.957855,174.644241 
	C374.959442,174.689972 361.960999,174.735703 348.417053,174.399841 
	C346.667328,172.668106 345.463165,171.317978 344.259033,169.967850 
	C344.071533,169.255386 343.884064,168.542938 344.025818,167.287018 
	C344.572266,166.132736 344.789490,165.521942 345.006744,164.911133 
	C355.825867,164.841339 366.645020,164.771545 378.264282,164.704041 
	C379.427948,164.336273 379.791473,163.966248 380.154968,163.596191 
	C381.002228,162.243179 381.849518,160.890152 382.862427,159.272675 
	C369.756104,159.272675 356.841888,159.272675 343.393280,158.995316 
	C342.577362,158.783218 342.295807,158.848465 342.014282,158.913727 
	C341.273071,157.331024 340.366638,155.803711 339.814606,154.157578 
	C321.234589,98.751198 270.381531,59.014812 212.791092,54.942268 
	C142.817749,49.994064 81.673836,91.668907 60.209480,158.613861 
	C59.501091,158.752686 59.245388,158.908875 58.989685,159.065063 
	C46.444565,159.065063 33.899445,159.065063 21.227005,159.065063 
	C21.571600,160.837402 21.905920,162.556870 22.318974,164.681305 
	C33.561043,164.681305 44.820778,164.681305 56.556541,165.112823 
	C57.378551,166.039001 57.724537,166.533646 58.070526,167.028305 
M224.566589,27.159847 
	C225.388123,27.039965 226.215317,26.950073 227.030350,26.795834 
	C250.065430,22.436571 269.247437,28.091471 282.872406,48.242859 
	C283.307404,48.886204 283.910309,49.416031 284.726898,50.323097 
	C280.713745,24.045578 245.744995,10.832885 223.822601,27.092091 
	C223.836029,27.080570 223.862976,27.064451 223.860870,27.058212 
	C223.824615,26.951668 223.784790,26.846344 224.566589,27.159847 
M131.671707,29.149282 
	C125.167747,34.720306 120.654922,41.532665 118.735672,50.301823 
	C133.286224,30.660341 151.917511,20.844530 176.877457,25.708956 
	C161.128510,17.805046 146.221222,17.504271 131.671707,29.149282 
M352.541473,87.973557 
	C341.721130,75.664085 325.016113,69.918701 314.791748,75.217377 
	C339.173981,78.404137 354.469513,91.696495 360.562531,115.527008 
	C361.631622,105.412682 358.648132,96.598595 352.541473,87.973557 
M48.912285,102.643402 
	C55.479580,87.409897 67.510506,78.739708 83.048950,74.224251 
	C66.889412,73.990974 54.563152,80.390007 46.886833,94.913620 
	C41.868626,104.408081 40.822098,113.669090 44.673454,118.399376 
	C45.208992,115.646645 45.543652,113.236580 46.167797,110.903976 
	C46.850529,108.352417 47.800846,105.872452 48.912285,102.643402 
M55.586971,173.507660 
	C55.586971,173.507660 55.476116,173.569244 55.586971,173.507660 
z"/>
<path fill="#292B32" opacity="1.000000" stroke="none" 
	d="
M56.861176,236.583038 
	C47.375282,236.662933 37.879086,237.033615 28.407913,236.698013 
	C23.788424,236.534317 20.757778,237.778732 18.742487,243.061249 
	C22.593153,242.724945 26.041794,242.208374 29.496586,242.163315 
	C38.989223,242.039490 48.490204,241.953094 57.972034,242.293442 
	C59.294865,242.340927 61.155205,244.657684 61.711582,246.284760 
	C74.592369,283.953369 98.498505,312.381744 133.740219,330.721436 
	C213.201294,372.072723 311.272675,332.191895 339.815125,247.257584 
	C340.343079,245.686554 340.859711,244.111694 341.365814,242.586121 
	C354.544495,242.586121 367.580231,242.586121 380.828339,242.586121 
	C380.682861,241.010254 380.522217,239.270081 380.293854,236.795975 
	C368.900238,236.795975 357.488586,236.795975 345.463074,236.328827 
	C344.438843,235.540634 344.028503,235.219574 343.618164,234.898514 
	C343.985199,232.836502 344.352264,230.774506 345.094727,228.242630 
	C345.723175,227.575607 345.898834,227.324341 345.997070,227.018982 
	C363.114990,227.018982 380.232941,227.018982 397.672577,227.018982 
	C397.672577,235.364975 397.672577,243.419449 397.672577,251.912125 
	C388.282013,251.912125 378.879333,251.912125 369.062744,251.912125 
	C369.062744,287.066132 369.062744,321.789490 369.062744,356.935913 
	C342.919586,356.935913 317.192139,356.935913 291.034851,356.935913 
	C291.034851,368.086914 291.034851,378.823639 291.034851,389.773010 
	C230.556534,389.773010 170.511871,389.773010 110.033279,389.773010 
	C110.033279,378.893585 110.033279,368.156708 110.033279,357.009064 
	C74.546341,357.009064 39.489746,357.009064 4.220577,357.009064 
	C4.220577,313.689117 4.220577,270.789917 4.220577,227.693680 
	C6.737525,227.693680 9.061238,227.693680 12.147623,227.730286 
	C13.274671,227.505417 13.639048,227.243973 14.003427,226.982529 
	C28.125305,226.982529 42.247181,226.982529 56.768318,226.982529 
	C57.249203,229.316071 57.740917,231.702133 57.922050,234.695862 
	C57.361370,235.730026 57.111271,236.156540 56.861176,236.583038 
M166.559143,378.160767 
	C171.427582,375.963318 176.296021,373.765869 181.164459,371.568390 
	C180.983948,371.079315 180.803436,370.590210 180.622925,370.101135 
	C157.028610,378.014618 136.360855,373.910767 119.403542,354.570831 
	C130.044128,375.581329 144.603088,382.799377 166.559143,378.160767 
M82.686096,320.882263 
	C60.089973,316.393341 46.959915,302.190948 41.393677,280.161896 
	C41.481846,296.718719 46.693180,310.307251 61.790348,318.645966 
	C71.726791,324.134308 81.828217,325.388428 87.557518,321.450897 
	C86.089188,321.270630 84.794174,321.111664 82.686096,320.882263 
M359.187622,298.603577 
	C360.972076,292.413605 361.428650,286.282837 358.430725,279.717560 
	C355.947937,304.742615 344.078064,320.371338 317.560852,327.663666 
	C333.861603,330.875427 352.258301,318.308777 359.187622,298.603577 
M274.917725,370.412964 
	C278.458710,366.621307 281.591034,362.625641 281.710022,356.957794 
	C274.658478,365.516937 266.474701,372.252655 255.960861,375.790741 
	C245.562210,379.290039 235.052795,378.091400 224.528717,376.111053 
	C244.266342,386.120148 259.427948,384.424255 274.917725,370.412964 
z"/>
<path fill="#2E3036" opacity="1.000000" stroke="none" 
	d="
M306.165405,106.839279 
	C377.728912,188.677734 336.896759,314.211273 231.112198,338.566589 
	C156.119019,355.832642 78.318138,305.791016 62.981007,230.424347 
	C46.681534,150.328766 98.083710,74.373108 178.663651,61.613884 
	C228.582932,53.709541 271.281982,69.577034 306.165405,106.839279 
M330.649719,167.883835 
	C313.382812,101.385017 250.056747,58.877701 182.210312,68.244606 
	C106.050720,78.759216 53.643661,152.513199 70.168480,227.784241 
	C82.011803,281.730927 115.738274,317.223846 169.264389,330.242004 
	C222.937546,343.295929 269.332001,327.356842 304.735443,284.648590 
	C332.746887,250.857483 340.542419,211.472488 330.649719,167.883835 
z"/>
<path fill="#2C2E35" opacity="1.000000" stroke="none" 
	d="
M3.997050,186.947403 
	C3.996830,184.514587 3.996830,182.558655 3.996830,180.363647 
	C21.488287,180.363647 38.556164,180.363647 55.857697,180.363647 
	C55.502838,183.663666 55.172112,186.739243 54.789509,190.297241 
	C43.895752,190.297241 33.120003,190.297470 22.344252,190.297150 
	C17.349646,190.296997 12.343965,190.473709 7.368574,190.164154 
	C6.192532,190.090973 5.118323,188.381195 3.997050,186.947403 
z"/>
<path fill="#2C2E35" opacity="1.000000" stroke="none" 
	d="
M347.088348,189.015198 
	C346.720642,186.228470 346.352936,183.441727 345.945343,180.352814 
	C363.327026,180.352814 380.388367,180.352814 397.726990,180.352814 
	C397.726990,183.475113 397.726990,186.535828 397.726990,190.262527 
	C381.406555,190.262527 365.161469,190.262527 348.363831,189.929688 
	C347.637268,189.319717 347.396301,189.125839 347.088348,189.015198 
z"/>
<path fill="#2B2D34" opacity="1.000000" stroke="none" 
	d="
M397.847107,212.452789 
	C397.983643,215.381165 397.983643,217.868683 397.983643,220.815125 
	C380.739288,220.815125 363.592163,220.815125 346.063019,220.815125 
	C346.369202,217.731613 346.674286,214.659393 347.026367,211.113861 
	C361.264648,211.113861 375.346802,211.066483 389.428101,211.154480 
	C392.190582,211.171753 394.949799,211.712570 397.847107,212.452789 
z"/>
<path fill="#2C2E35" opacity="1.000000" stroke="none" 
	d="
M363.002747,195.614304 
	C374.807983,195.614273 386.113953,195.614273 397.710999,195.614273 
	C397.710999,198.899277 397.710999,201.999191 397.710999,205.477676 
	C381.164734,205.477676 364.490875,205.477676 347.550964,205.477676 
	C347.550964,202.332230 347.550964,199.259918 347.550964,195.614334 
	C352.629547,195.614334 357.566528,195.614334 363.002747,195.614304 
z"/>
<path fill="#2C2E35" opacity="1.000000" stroke="none" 
	d="
M34.999851,195.614304 
	C41.650074,195.614273 47.800407,195.614273 54.290321,195.614273 
	C54.290321,198.961563 54.290321,202.022934 54.290321,205.476624 
	C37.854343,205.476624 21.302427,205.476624 4.372390,205.476624 
	C4.372390,202.500809 4.372390,199.447235 4.372390,195.614334 
	C14.331091,195.614334 24.415527,195.614334 34.999851,195.614304 
z"/>
<path fill="#2B2D34" opacity="1.000000" stroke="none" 
	d="
M53.997292,221.029724 
	C37.971115,221.101166 21.944939,221.172607 5.374812,220.925613 
	C4.675900,220.334915 4.452988,220.140564 4.162127,220.024139 
	C4.162127,217.393570 4.162127,214.763016 4.162127,211.624115 
	C20.975435,211.624115 37.632664,211.624115 54.802177,211.624115 
	C54.953007,213.212357 55.133839,215.116547 54.965355,217.661819 
	C54.409790,219.211853 54.203541,220.120789 53.997292,221.029724 
z"/>
<path fill="#3F4147" opacity="1.000000" stroke="none" 
	d="
M388.372253,174.650192 
	C390.982574,173.776001 394.007294,172.907761 397.457367,172.011658 
	C396.722595,172.451370 395.592499,173.026031 394.395386,173.361725 
	C392.549896,173.879196 390.658539,174.232941 388.372253,174.650192 
z"/>
<path fill="#3F4147" opacity="1.000000" stroke="none" 
	d="
M344.229401,170.344757 
	C345.463165,171.317978 346.667328,172.668106 347.957184,174.322556 
	C344.281158,175.766388 344.736908,172.755493 344.229401,170.344757 
z"/>
<path fill="#1F2128" opacity="1.000000" stroke="none" 
	d="
M54.342537,221.108826 
	C54.203541,220.120789 54.409790,219.211853 54.911186,218.101746 
	C55.033482,218.996368 54.860630,220.092148 54.342537,221.108826 
z"/>
<path fill="#1F2128" opacity="1.000000" stroke="none" 
	d="
M344.686188,164.819275 
	C344.789490,165.521942 344.572266,166.132736 344.072021,166.920135 
	C343.981232,166.306961 344.173431,165.517181 344.686188,164.819275 
z"/>
<path fill="#1F2128" opacity="1.000000" stroke="none" 
	d="
M58.283348,166.780899 
	C57.724537,166.533646 57.378551,166.039001 57.012852,165.227203 
	C57.494148,165.451202 57.995159,165.992340 58.283348,166.780899 
z"/>
<path fill="#1F2128" opacity="1.000000" stroke="none" 
	d="
M342.246582,159.065338 
	C342.295807,158.848465 342.577362,158.783218 342.935425,158.890503 
	C342.834259,159.114334 342.656586,159.165634 342.246582,159.065338 
z"/>
<path fill="#1F2128" opacity="1.000000" stroke="none" 
	d="
M343.511414,235.405853 
	C344.028503,235.219574 344.438843,235.540634 345.017578,236.222992 
	C344.592224,236.360596 343.998413,236.136887 343.511414,235.405853 
z"/>
<path fill="#1F2128" opacity="1.000000" stroke="none" 
	d="
M57.364365,236.599411 
	C57.111271,236.156540 57.361370,235.730026 57.934677,235.115311 
	C58.127773,235.489990 57.997662,236.052887 57.364365,236.599411 
z"/>
<path fill="#1F2128" opacity="1.000000" stroke="none" 
	d="
M345.709534,226.997665 
	C345.898834,227.324341 345.723175,227.575607 345.264160,227.880981 
	C345.179413,227.651566 345.300690,227.313965 345.709534,226.997665 
z"/>
<path fill="#1F2128" opacity="1.000000" stroke="none" 
	d="
M13.642979,226.937225 
	C13.639048,227.243973 13.274671,227.505417 12.560339,227.778107 
	C12.567768,227.490189 12.925151,227.191055 13.642979,226.937225 
z"/>
<path fill="#1F2128" opacity="1.000000" stroke="none" 
	d="
M4.125718,220.312195 
	C4.452988,220.140564 4.675900,220.334915 4.917676,220.815094 
	C4.699428,220.882095 4.394369,220.741180 4.125718,220.312195 
z"/>
<path fill="#1F2128" opacity="1.000000" stroke="none" 
	d="
M347.063232,189.311005 
	C347.396301,189.125839 347.637268,189.319717 347.908356,189.811447 
	C347.683014,189.886292 347.360565,189.746567 347.063232,189.311005 
z"/>
<path fill="#1F2128" opacity="1.000000" stroke="none" 
	d="
M59.257401,159.140594 
	C59.245388,158.908875 59.501091,158.752686 59.868011,158.745605 
	C59.827854,159.001862 59.676487,159.108978 59.257401,159.140594 
z"/>
<path fill="#1F2128" opacity="1.000000" stroke="none" 
	d="
M379.759216,163.664948 
	C379.791473,163.966248 379.427948,164.336273 378.678680,164.802795 
	C378.649750,164.510742 379.006592,164.122208 379.759216,163.664948 
z"/>
<path fill="#F2F2F2" opacity="1.000000" stroke="none" 
	d="
M223.830368,26.828213 
	C245.744995,10.832885 280.713745,24.045578 284.726898,50.323097 
	C283.910309,49.416031 283.307404,48.886204 282.872406,48.242859 
	C269.247437,28.091471 250.065430,22.436571 227.030350,26.795834 
	C226.215317,26.950073 225.388123,27.039965 224.177765,26.971733 
	C223.788940,26.783619 223.830368,26.828213 223.830368,26.828213 
z"/>
<path fill="#F3F3F3" opacity="1.000000" stroke="none" 
	d="
M131.952271,28.929201 
	C146.221222,17.504271 161.128510,17.805046 176.877457,25.708956 
	C151.917511,20.844530 133.286224,30.660341 118.735672,50.301823 
	C120.654922,41.532665 125.167747,34.720306 131.952271,28.929201 
z"/>
<path fill="#F1F1F1" opacity="1.000000" stroke="none" 
	d="
M352.761108,88.259026 
	C358.648132,96.598595 361.631622,105.412682 360.562531,115.527008 
	C354.469513,91.696495 339.173981,78.404137 314.791748,75.217377 
	C325.016113,69.918701 341.721130,75.664085 352.761108,88.259026 
z"/>
<path fill="#F2F2F2" opacity="1.000000" stroke="none" 
	d="
M48.773415,103.002342 
	C47.800846,105.872452 46.850529,108.352417 46.167797,110.903976 
	C45.543652,113.236580 45.208992,115.646645 44.673454,118.399376 
	C40.822098,113.669090 41.868626,104.408081 46.886833,94.913620 
	C54.563152,80.390007 66.889412,73.990974 83.048950,74.224251 
	C67.510506,78.739708 55.479580,87.409897 48.773415,103.002342 
z"/>
<path fill="#F2F2F2" opacity="1.000000" stroke="none" 
	d="
M223.767334,26.762186 
	C223.784790,26.846344 223.824615,26.951668 223.860870,27.058212 
	C223.862976,27.064451 223.836029,27.080570 223.826477,26.960152 
	C223.830368,26.828213 223.788940,26.783619 223.767334,26.762186 
z"/>
<path fill="#1F2128" opacity="1.000000" stroke="none" 
	d="
M55.531544,173.538452 
	C55.476116,173.569244 55.586971,173.507660 55.531544,173.538452 
z"/>
<path fill="#F3F3F3" opacity="1.000000" stroke="none" 
	d="
M166.168488,378.287720 
	C144.603088,382.799377 130.044128,375.581329 119.403542,354.570831 
	C136.360855,373.910767 157.028610,378.014618 180.622925,370.101135 
	C180.803436,370.590210 180.983948,371.079315 181.164459,371.568390 
	C176.296021,373.765869 171.427582,375.963318 166.168488,378.287720 
z"/>
<path fill="#F1F1F1" opacity="1.000000" stroke="none" 
	d="
M83.092628,320.917480 
	C84.794174,321.111664 86.089188,321.270630 87.557518,321.450897 
	C81.828217,325.388428 71.726791,324.134308 61.790348,318.645966 
	C46.693180,310.307251 41.481846,296.718719 41.393677,280.161896 
	C46.959915,302.190948 60.089973,316.393341 83.092628,320.917480 
z"/>
<path fill="#F0F0F1" opacity="1.000000" stroke="none" 
	d="
M359.080139,298.989563 
	C352.258301,318.308777 333.861603,330.875427 317.560852,327.663666 
	C344.078064,320.371338 355.947937,304.742615 358.430725,279.717560 
	C361.428650,286.282837 360.972076,292.413605 359.080139,298.989563 
z"/>
<path fill="#F1F1F1" opacity="1.000000" stroke="none" 
	d="
M274.667419,370.663086 
	C259.427948,384.424255 244.266342,386.120148 224.528717,376.111053 
	C235.052795,378.091400 245.562210,379.290039 255.960861,375.790741 
	C266.474701,372.252655 274.658478,365.516937 281.710022,356.957794 
	C281.591034,362.625641 278.458710,366.621307 274.667419,370.663086 
z"/>
<path fill="#E5E6E7" opacity="1.000000" stroke="none" 
	d="
M330.769409,168.275055 
	C340.542419,211.472488 332.746887,250.857483 304.735443,284.648590 
	C269.332001,327.356842 222.937546,343.295929 169.264389,330.242004 
	C115.738274,317.223846 82.011803,281.730927 70.168480,227.784241 
	C53.643661,152.513199 106.050720,78.759216 182.210312,68.244606 
	C250.056747,58.877701 313.382812,101.385017 330.769409,168.275055 
M69.792351,207.914917 
	C74.819656,287.878174 147.285538,344.452698 225.862000,329.759369 
	C297.929382,316.283203 345.053040,244.617111 329.227753,172.559738 
	C316.633698,115.215019 265.764404,71.735420 208.300537,69.499588 
	C203.181625,69.608398 198.062698,69.717201 192.069443,69.759254 
	C184.513458,70.912025 176.832718,71.539909 169.421341,73.301140 
	C113.347794,86.626328 70.641006,138.941086 69.543228,195.696594 
	C69.655067,199.477386 69.766907,203.258179 69.792351,207.914917 
z"/>
<path fill="#292B32" opacity="1.000000" stroke="none" 
	d="
M69.849930,194.957031 
	C70.641006,138.941086 113.347794,86.626328 169.421341,73.301140 
	C176.832718,71.539909 184.513458,70.912025 192.798981,70.096954 
	C198.701309,70.235512 203.874069,70.036362 209.046844,69.837212 
	C265.764404,71.735420 316.633698,115.215019 329.227753,172.559738 
	C345.053040,244.617111 297.929382,316.283203 225.862000,329.759369 
	C147.285538,344.452698 74.819656,287.878174 70.127350,207.183823 
	C70.258209,202.620834 70.054070,198.788925 69.849930,194.957031 
M251.394226,196.318237 
	C250.977936,196.868317 250.561646,197.418396 249.877014,197.319305 
	C245.822327,191.311905 239.445541,190.366211 235.048172,195.910965 
	C232.503250,199.119919 230.484344,203.539734 230.205246,207.552094 
	C229.852295,212.626419 227.182159,213.931595 222.328949,215.308640 
	C222.107864,212.816727 221.345993,210.519287 221.847733,208.542587 
	C222.816452,204.725998 224.517609,201.097488 225.880676,197.378387 
	C228.952835,188.996078 233.349899,180.873291 232.338837,171.577194 
	C232.091537,169.303406 230.370453,165.997879 228.588684,165.412018 
	C226.737793,164.803406 222.941040,166.245682 221.841705,167.968994 
	C218.954330,172.495285 216.521423,177.492203 214.935501,182.619598 
	C213.183807,188.283020 212.570007,193.414139 206.004669,196.916214 
	C201.967133,199.069901 200.640945,206.184784 197.897720,210.957275 
	C197.017990,212.487762 195.499619,213.651138 194.273438,214.982498 
	C193.521072,213.583481 192.112076,212.169342 192.143829,210.788361 
	C192.227188,207.163132 193.263931,203.554016 193.282761,199.935165 
	C193.294968,197.593231 192.903412,194.037796 191.424011,193.156860 
	C188.527512,191.432129 186.332062,193.925095 184.862061,196.654144 
	C183.811783,198.603958 182.526016,200.426941 181.345322,202.306503 
	C180.668015,200.480560 181.181885,199.134308 180.902328,197.980255 
	C180.459656,196.152756 179.485825,194.453918 178.736740,192.700653 
	C177.191269,194.097549 174.928574,195.220245 174.265610,196.954498 
	C173.227509,199.670044 173.212616,202.792221 172.868881,205.754288 
	C172.274155,210.879028 168.900696,213.342468 163.106918,215.896301 
	C164.043518,209.683563 164.941055,204.736603 165.452652,199.750046 
	C165.615479,198.162888 165.292542,195.608841 164.269821,194.967438 
	C158.091095,191.092438 151.868988,192.192078 147.644730,198.352783 
	C145.085251,202.085571 143.767776,206.665756 141.853653,210.847534 
	C141.151871,212.380753 140.338699,213.863007 139.576324,215.368515 
	C138.854279,215.198547 138.132233,215.028580 137.410187,214.858612 
	C137.410187,212.338699 137.236084,209.803665 137.453201,207.302612 
	C137.740265,203.995590 138.591782,200.722137 138.680786,197.420227 
	C138.721954,195.892548 137.532852,194.331711 136.901535,192.785904 
	C135.246048,193.500320 133.230652,193.842468 132.017960,195.014893 
	C130.115967,196.853729 128.755814,199.253006 126.416870,202.433990 
	C126.199287,200.220810 126.168060,199.453568 126.041458,198.702377 
	C125.703712,196.698532 125.324974,194.701614 124.962524,192.701935 
	C123.104927,193.741608 120.986862,194.497147 119.459641,195.897217 
	C117.778282,197.438538 116.640030,199.572296 115.265175,201.447968 
	C114.859215,201.266754 114.453262,201.085541 114.047302,200.904327 
	C114.171074,199.530609 114.557587,198.115463 114.349174,196.794144 
	C114.112061,195.290848 113.343620,193.871353 112.806122,192.415436 
	C111.343948,193.420197 108.865746,194.202545 108.589020,195.466782 
	C107.099632,202.270981 105.897026,209.168762 105.201714,216.095123 
	C105.018700,217.918198 106.988708,219.957397 107.970032,221.897354 
	C109.642151,220.594131 111.818443,219.608047 112.879875,217.920670 
	C114.992607,214.561996 116.492233,210.817657 118.245155,207.232651 
	C118.951508,210.573212 118.251602,213.558838 118.456818,216.480896 
	C118.588112,218.350418 120.056297,220.126053 120.925140,221.943787 
	C122.602303,220.643204 124.876610,219.676392 125.829712,217.971115 
	C127.693573,214.636353 128.819778,210.889297 130.784622,205.980713 
	C131.097824,210.712097 131.064819,213.879135 131.565765,216.959320 
	C132.409409,222.146545 134.120255,222.963654 139.186020,221.152405 
	C140.680649,220.618011 142.918716,219.317810 143.625580,219.876022 
	C149.205017,224.282394 153.558914,220.950180 157.920425,217.914948 
	C162.923340,223.458633 164.201828,223.474579 171.694870,218.248260 
	C175.022705,223.528534 176.882553,223.468292 179.790543,217.928925 
	C181.651077,214.384781 183.436615,210.801254 185.685852,206.392395 
	C186.138718,210.865158 186.360870,214.156219 186.828903,217.411926 
	C187.454300,221.762070 189.841858,223.167343 193.856415,221.082306 
	C197.030945,219.433563 199.909576,218.296341 203.130432,221.401382 
	C203.996872,222.236664 206.681702,221.801559 208.223419,221.182083 
	C210.795502,220.148621 213.118927,218.496338 214.697617,217.591476 
	C217.654785,219.165421 220.326660,221.741058 222.920197,221.664459 
	C225.899582,221.576492 228.809616,219.139832 231.876114,217.662506 
	C238.853958,225.227692 245.956467,221.501099 253.361298,217.425018 
	C255.748383,222.448990 259.480377,222.954422 264.012299,220.570328 
	C264.837280,220.136353 266.251678,219.516113 266.697540,219.866943 
	C272.197693,224.194824 276.647461,221.153427 280.981232,217.869781 
	C285.479034,222.888229 287.561554,223.229324 292.362823,219.871719 
	C297.742767,216.109451 298.368225,214.021713 295.723022,209.341019 
	C293.170319,211.387787 290.578430,213.466003 287.379639,216.030807 
	C287.004700,214.021942 286.644714,213.212173 286.749756,212.468048 
	C287.283478,208.687134 288.127106,204.940491 288.472900,201.146378 
	C288.656219,199.135330 288.821106,196.151489 287.663269,195.157898 
	C282.729218,190.923813 275.470367,191.893280 271.262695,197.652847 
	C268.497284,201.438171 267.062897,206.179947 264.883301,210.416672 
	C263.958221,212.214828 262.651123,213.816452 261.517670,215.507385 
	C260.659882,215.134262 259.802124,214.761124 258.944336,214.388000 
	C259.527191,211.371964 259.604187,208.135147 260.803131,205.387985 
	C262.988922,200.379639 266.367920,195.860062 268.280334,190.772415 
	C270.696350,184.344894 272.708832,177.645325 273.810272,170.886261 
	C274.548737,166.354691 270.540070,164.124741 266.578094,166.581665 
	C264.000244,168.180252 261.274933,170.562195 260.121613,173.241425 
	C256.932495,180.650024 254.533493,188.398758 251.394226,196.318237 
M196.551041,294.193420 
	C195.593842,298.420349 194.636642,302.647308 193.755997,306.536194 
	C196.639267,308.582642 200.358307,311.222290 203.540359,313.480774 
	C206.765671,311.185608 210.495651,308.531311 213.621582,306.306854 
	C212.434723,302.692169 211.063660,298.516479 209.969269,295.183411 
	C205.988022,294.777588 201.662643,294.336700 196.551041,294.193420 
M210.120026,99.324219 
	C211.466629,97.554779 212.813232,95.785339 213.526016,94.848747 
	C209.442566,91.901932 205.800659,89.273743 202.985229,87.241989 
	C199.451508,89.678253 195.850616,92.160835 192.821533,94.249184 
	C194.087128,98.052307 195.473297,102.217789 196.649338,105.751831 
	C200.694153,105.751831 205.206116,105.751831 209.936615,105.751831 
	C209.936615,104.402344 209.936615,102.262375 210.120026,99.324219 
M241.633118,108.300232 
	C242.401443,105.615776 243.169769,102.931328 243.846252,100.567780 
	C241.379700,98.804062 238.562439,96.789581 236.055527,94.997009 
	C233.418869,96.863556 230.576065,98.876030 228.212753,100.549072 
	C229.190018,103.511467 230.223236,106.643425 231.250381,109.757011 
	C234.377304,109.571236 238.017960,109.354927 241.633118,108.300232 
M177.326660,103.239227 
	C177.869354,102.488167 178.412064,101.737106 178.589462,101.491585 
	C175.505249,99.315445 172.714325,97.346252 170.289841,95.635605 
	C167.623215,97.481842 164.794083,99.440590 162.377991,101.113373 
	C163.443146,104.221092 164.552032,107.456367 165.450409,110.077515 
	C168.750854,110.077515 172.173859,110.077515 175.420792,110.077515 
	C175.854782,108.212212 176.358704,106.046326 177.326660,103.239227 
M230.565460,291.339539 
	C229.844223,294.178894 229.122986,297.018250 228.498032,299.478546 
	C230.992111,301.270905 233.820251,303.303314 236.125504,304.959961 
	C238.857025,303.068787 241.702881,301.098511 243.980865,299.521362 
	C242.976517,296.500977 241.929703,293.352936 241.005630,290.573975 
	C237.708923,290.573975 234.141144,290.573975 230.565460,291.339539 
M165.575256,301.728973 
	C167.238388,303.212311 168.901505,304.695679 170.057297,305.726532 
	C172.998810,303.705292 175.823181,301.764526 178.193817,300.135590 
	C177.166245,297.022003 176.093796,293.772461 175.219284,291.122650 
	C171.930832,291.122650 168.502380,291.122650 165.582916,291.122650 
	C164.502380,294.183838 163.358200,297.425354 162.198730,300.710175 
	C162.960312,300.915649 163.911575,301.172302 165.575256,301.728973 
M259.419037,110.840424 
	C258.535767,111.154655 257.652496,111.468887 256.976532,111.709373 
	C257.803772,114.230507 258.532776,116.452194 259.182678,118.432861 
	C261.635956,118.432861 264.093048,118.432861 266.229156,118.432861 
	C266.958832,116.208992 267.644958,114.117767 268.324127,112.047882 
	C266.433014,110.745186 264.387054,109.335831 262.318787,107.911095 
	C261.569031,108.764854 260.810028,109.629143 259.419037,110.840424 
M264.037659,291.259033 
	C265.495178,290.304138 266.952698,289.349274 268.183563,288.542847 
	C267.405060,286.236786 266.667450,284.051941 266.057953,282.246582 
	C263.518463,282.246582 261.186218,282.246582 259.125214,282.246582 
	C258.365784,284.463104 257.655426,286.536469 256.851349,288.883362 
	C259.041656,289.860229 261.340942,290.885651 264.037659,291.259033 
M144.368347,118.010361 
	C145.416931,118.306046 146.465500,118.601730 147.260422,118.825882 
	C148.047882,116.349968 148.755814,114.124077 149.411819,112.061485 
	C147.587891,110.785576 145.652054,109.431366 143.819229,108.149223 
	C142.046570,109.424812 140.151733,110.788315 138.278458,112.136314 
	C139.050812,114.254288 139.885529,116.543282 140.728851,118.855896 
	C141.686356,118.553314 142.624130,118.256966 144.368347,118.010361 
M142.139572,291.172028 
	C142.950043,291.530182 144.088440,292.417328 144.513504,292.153778 
	C146.239822,291.083557 147.747177,289.660126 149.280228,288.411774 
	C148.633759,286.448517 147.911850,284.256104 147.268265,282.301544 
	C144.840973,282.301544 142.490936,282.301544 140.371231,282.301544 
	C139.617554,284.508392 138.874084,286.685394 138.137878,288.841125 
	C139.384735,289.429077 140.560654,289.983551 142.139572,291.172028 
z"/>
<path fill="#3F4147" opacity="1.000000" stroke="none" 
	d="
M208.673691,69.668396 
	C203.874069,70.036362 198.701309,70.235512 193.236160,70.130333 
	C198.062698,69.717201 203.181625,69.608398 208.673691,69.668396 
z"/>
<path fill="#3F4147" opacity="1.000000" stroke="none" 
	d="
M69.696579,195.326813 
	C70.054070,198.788925 70.258209,202.620834 70.170547,206.745850 
	C69.766907,203.258179 69.655067,199.477386 69.696579,195.326813 
z"/>
<path fill="#F7F7F7" opacity="1.000000" stroke="none" 
	d="
M251.822113,196.013016 
	C254.533493,188.398758 256.932495,180.650024 260.121613,173.241425 
	C261.274933,170.562195 264.000244,168.180252 266.578094,166.581665 
	C270.540070,164.124741 274.548737,166.354691 273.810272,170.886261 
	C272.708832,177.645325 270.696350,184.344894 268.280334,190.772415 
	C266.367920,195.860062 262.988922,200.379639 260.803131,205.387985 
	C259.604187,208.135147 259.527191,211.371964 258.944336,214.388000 
	C259.802124,214.761124 260.659882,215.134262 261.517670,215.507385 
	C262.651123,213.816452 263.958221,212.214828 264.883301,210.416672 
	C267.062897,206.179947 268.497284,201.438171 271.262695,197.652847 
	C275.470367,191.893280 282.729218,190.923813 287.663269,195.157898 
	C288.821106,196.151489 288.656219,199.135330 288.472900,201.146378 
	C288.127106,204.940491 287.283478,208.687134 286.749756,212.468048 
	C286.644714,213.212173 287.004700,214.021942 287.379639,216.030807 
	C290.578430,213.466003 293.170319,211.387787 295.723022,209.341019 
	C298.368225,214.021713 297.742767,216.109451 292.362823,219.871719 
	C287.561554,223.229324 285.479034,222.888229 280.981232,217.869781 
	C276.647461,221.153427 272.197693,224.194824 266.697540,219.866943 
	C266.251678,219.516113 264.837280,220.136353 264.012299,220.570328 
	C259.480377,222.954422 255.748383,222.448990 253.361298,217.425018 
	C245.956467,221.501099 238.853958,225.227692 231.876114,217.662506 
	C228.809616,219.139832 225.899582,221.576492 222.920197,221.664459 
	C220.326660,221.741058 217.654785,219.165421 214.697617,217.591476 
	C213.118927,218.496338 210.795502,220.148621 208.223419,221.182083 
	C206.681702,221.801559 203.996872,222.236664 203.130432,221.401382 
	C199.909576,218.296341 197.030945,219.433563 193.856415,221.082306 
	C189.841858,223.167343 187.454300,221.762070 186.828903,217.411926 
	C186.360870,214.156219 186.138718,210.865158 185.685852,206.392395 
	C183.436615,210.801254 181.651077,214.384781 179.790543,217.928925 
	C176.882553,223.468292 175.022705,223.528534 171.694870,218.248260 
	C164.201828,223.474579 162.923340,223.458633 157.920425,217.914948 
	C153.558914,220.950180 149.205017,224.282394 143.625580,219.876022 
	C142.918716,219.317810 140.680649,220.618011 139.186020,221.152405 
	C134.120255,222.963654 132.409409,222.146545 131.565765,216.959320 
	C131.064819,213.879135 131.097824,210.712097 130.784622,205.980713 
	C128.819778,210.889297 127.693573,214.636353 125.829712,217.971115 
	C124.876610,219.676392 122.602303,220.643204 120.925140,221.943787 
	C120.056297,220.126053 118.588112,218.350418 118.456818,216.480896 
	C118.251602,213.558838 118.951508,210.573212 118.245155,207.232651 
	C116.492233,210.817657 114.992607,214.561996 112.879875,217.920670 
	C111.818443,219.608047 109.642151,220.594131 107.970032,221.897354 
	C106.988708,219.957397 105.018700,217.918198 105.201714,216.095123 
	C105.897026,209.168762 107.099632,202.270981 108.589020,195.466782 
	C108.865746,194.202545 111.343948,193.420197 112.806122,192.415436 
	C113.343620,193.871353 114.112061,195.290848 114.349174,196.794144 
	C114.557587,198.115463 114.171074,199.530609 114.047302,200.904327 
	C114.453262,201.085541 114.859215,201.266754 115.265175,201.447968 
	C116.640030,199.572296 117.778282,197.438538 119.459641,195.897217 
	C120.986862,194.497147 123.104927,193.741608 124.962524,192.701935 
	C125.324974,194.701614 125.703712,196.698532 126.041458,198.702377 
	C126.168060,199.453568 126.199287,200.220810 126.416870,202.433990 
	C128.755814,199.253006 130.115967,196.853729 132.017960,195.014893 
	C133.230652,193.842468 135.246048,193.500320 136.901535,192.785904 
	C137.532852,194.331711 138.721954,195.892548 138.680786,197.420227 
	C138.591782,200.722137 137.740265,203.995590 137.453201,207.302612 
	C137.236084,209.803665 137.410187,212.338699 137.410187,214.858612 
	C138.132233,215.028580 138.854279,215.198547 139.576324,215.368515 
	C140.338699,213.863007 141.151871,212.380753 141.853653,210.847534 
	C143.767776,206.665756 145.085251,202.085571 147.644730,198.352783 
	C151.868988,192.192078 158.091095,191.092438 164.269821,194.967438 
	C165.292542,195.608841 165.615479,198.162888 165.452652,199.750046 
	C164.941055,204.736603 164.043518,209.683563 163.106918,215.896301 
	C168.900696,213.342468 172.274155,210.879028 172.868881,205.754288 
	C173.212616,202.792221 173.227509,199.670044 174.265610,196.954498 
	C174.928574,195.220245 177.191269,194.097549 178.736740,192.700653 
	C179.485825,194.453918 180.459656,196.152756 180.902328,197.980255 
	C181.181885,199.134308 180.668015,200.480560 181.345322,202.306503 
	C182.526016,200.426941 183.811783,198.603958 184.862061,196.654144 
	C186.332062,193.925095 188.527512,191.432129 191.424011,193.156860 
	C192.903412,194.037796 193.294968,197.593231 193.282761,199.935165 
	C193.263931,203.554016 192.227188,207.163132 192.143829,210.788361 
	C192.112076,212.169342 193.521072,213.583481 194.273438,214.982483 
	C195.499619,213.651138 197.017990,212.487762 197.897720,210.957275 
	C200.640945,206.184784 201.967133,199.069901 206.004669,196.916214 
	C212.570007,193.414139 213.183807,188.283020 214.935501,182.619598 
	C216.521423,177.492203 218.954330,172.495285 221.841705,167.968994 
	C222.941040,166.245682 226.737793,164.803406 228.588684,165.412018 
	C230.370453,165.997879 232.091537,169.303406 232.338837,171.577194 
	C233.349899,180.873291 228.952835,188.996078 225.880676,197.378387 
	C224.517609,201.097488 222.816452,204.725998 221.847733,208.542587 
	C221.345993,210.519287 222.107864,212.816727 222.328949,215.308640 
	C227.182159,213.931595 229.852295,212.626419 230.205246,207.552094 
	C230.484344,203.539734 232.503250,199.119919 235.048172,195.910965 
	C239.445541,190.366211 245.822327,191.311905 249.957825,198.045563 
	C250.148514,206.927979 243.690140,209.786926 237.637390,213.169937 
	C241.827927,216.705872 245.152496,214.235458 248.586411,212.972580 
	C251.755585,211.807053 251.125732,209.379990 251.111572,206.859985 
	C251.091263,203.245773 251.561371,199.628799 251.822113,196.013016 
M157.504150,204.217773 
	C157.872772,202.317245 158.241379,200.416702 158.664093,198.237320 
	C153.038513,200.413803 148.394211,207.661713 149.157608,212.809647 
	C149.324432,213.934647 150.161774,215.582901 151.009262,215.812393 
	C151.888855,216.050583 153.760361,215.123123 154.142685,214.245621 
	C155.441406,211.264755 156.273895,208.080780 157.504150,204.217773 
M280.608551,204.252563 
	C280.980682,202.339600 281.352814,200.426620 281.758148,198.343018 
	C276.372467,200.197311 271.322815,207.817490 272.168365,212.712036 
	C272.368561,213.871002 273.398560,215.830887 273.941528,215.795715 
	C275.187683,215.715027 277.004913,214.914749 277.455139,213.901962 
	C278.715271,211.067108 279.399597,207.976273 280.608551,204.252563 
M213.146698,200.098709 
	C212.438553,199.888306 211.156937,199.400070 211.104874,199.507523 
	C209.011292,203.828827 206.219482,208.043060 205.308182,212.627090 
	C204.668503,215.844803 208.431229,215.789322 210.166519,214.171478 
	C211.786285,212.661301 212.803207,210.138992 213.295456,207.889328 
	C213.774506,205.700043 213.251465,203.291458 213.146698,200.098709 
M227.013931,178.246124 
	C227.013931,176.216507 227.013931,174.186890 227.013931,171.671921 
	C222.194092,175.088150 218.866394,189.828629 221.946243,196.277435 
	C223.596069,190.556213 225.245911,184.834991 227.013931,178.246124 
M266.997681,179.339508 
	C267.313049,177.245209 267.628387,175.150909 267.943756,173.056625 
	C260.632721,179.237793 260.491394,187.878464 258.347504,195.778000 
	C258.848969,195.998474 259.350433,196.218933 259.851868,196.439392 
	C262.180084,191.001083 264.508301,185.562775 266.997681,179.339508 
M237.051849,206.910202 
	C239.464066,205.510742 242.040771,204.313492 244.177460,202.575348 
	C244.739578,202.118073 243.940338,199.987305 243.766266,198.625031 
	C242.432541,198.893372 240.439713,198.715057 239.895370,199.518326 
	C238.553329,201.498825 237.876205,203.929916 237.051849,206.910202 
z"/>
<path fill="#F5F5F6" opacity="1.000000" stroke="none" 
	d="
M196.944153,294.044617 
	C201.662643,294.336700 205.988022,294.777588 209.969269,295.183411 
	C211.063660,298.516479 212.434723,302.692169 213.621582,306.306854 
	C210.495651,308.531311 206.765671,311.185608 203.540359,313.480774 
	C200.358307,311.222290 196.639267,308.582642 193.755997,306.536194 
	C194.636642,302.647308 195.593842,298.420349 196.944153,294.044617 
z"/>
<path fill="#F7F7F7" opacity="1.000000" stroke="none" 
	d="
M210.028320,99.723312 
	C209.936615,102.262375 209.936615,104.402344 209.936615,105.751831 
	C205.206116,105.751831 200.694153,105.751831 196.649338,105.751831 
	C195.473297,102.217789 194.087128,98.052307 192.821533,94.249184 
	C195.850616,92.160835 199.451508,89.678253 202.985229,87.241989 
	C205.800659,89.273743 209.442566,91.901932 213.526016,94.848747 
	C212.813232,95.785339 211.466629,97.554779 210.028320,99.723312 
z"/>
<path fill="#F2F2F2" opacity="1.000000" stroke="none" 
	d="
M241.645874,108.719429 
	C238.017960,109.354927 234.377304,109.571236 231.250381,109.757011 
	C230.223236,106.643425 229.190018,103.511467 228.212753,100.549072 
	C230.576065,98.876030 233.418869,96.863556 236.055527,94.997009 
	C238.562439,96.789581 241.379700,98.804062 243.846252,100.567780 
	C243.169769,102.931328 242.401443,105.615776 241.645874,108.719429 
z"/>
<path fill="#F3F3F3" opacity="1.000000" stroke="none" 
	d="
M177.094635,103.559830 
	C176.358704,106.046326 175.854782,108.212212 175.420792,110.077515 
	C172.173859,110.077515 168.750854,110.077515 165.450409,110.077515 
	C164.552032,107.456367 163.443146,104.221092 162.377991,101.113373 
	C164.794083,99.440590 167.623215,97.481842 170.289841,95.635605 
	C172.714325,97.346252 175.505249,99.315445 178.589462,101.491585 
	C178.412064,101.737106 177.869354,102.488167 177.094635,103.559830 
z"/>
<path fill="#F5F5F6" opacity="1.000000" stroke="none" 
	d="
M230.569412,290.956757 
	C234.141144,290.573975 237.708923,290.573975 241.005630,290.573975 
	C241.929703,293.352936 242.976517,296.500977 243.980865,299.521362 
	C241.702881,301.098511 238.857025,303.068787 236.125504,304.959961 
	C233.820251,303.303314 230.992111,301.270905 228.498032,299.478546 
	C229.122986,297.018250 229.844223,294.178894 230.569412,290.956757 
z"/>
<path fill="#F5F5F6" opacity="1.000000" stroke="none" 
	d="
M165.219055,301.578979 
	C163.911575,301.172302 162.960312,300.915649 162.198730,300.710175 
	C163.358200,297.425354 164.502380,294.183838 165.582916,291.122650 
	C168.502380,291.122650 171.930832,291.122650 175.219284,291.122650 
	C176.093796,293.772461 177.166245,297.022003 178.193817,300.135590 
	C175.823181,301.764526 172.998810,303.705292 170.057297,305.726532 
	C168.901505,304.695679 167.238388,303.212311 165.219055,301.578979 
z"/>
<path fill="#F0F0F1" opacity="1.000000" stroke="none" 
	d="
M259.735046,110.666924 
	C260.810028,109.629143 261.569031,108.764854 262.318787,107.911095 
	C264.387054,109.335831 266.433014,110.745186 268.324127,112.047882 
	C267.644958,114.117767 266.958832,116.208992 266.229156,118.432861 
	C264.093048,118.432861 261.635956,118.432861 259.182678,118.432861 
	C258.532776,116.452194 257.803772,114.230507 256.976532,111.709373 
	C257.652496,111.468887 258.535767,111.154655 259.735046,110.666924 
z"/>
<path fill="#F0F0F1" opacity="1.000000" stroke="none" 
	d="
M263.838928,291.585052 
	C261.340942,290.885651 259.041656,289.860229 256.851349,288.883362 
	C257.655426,286.536469 258.365784,284.463104 259.125214,282.246582 
	C261.186218,282.246582 263.518463,282.246582 266.057953,282.246582 
	C266.667450,284.051941 267.405060,286.236786 268.183563,288.542847 
	C266.952698,289.349274 265.495178,290.304138 263.838928,291.585052 
z"/>
<path fill="#36383E" opacity="1.000000" stroke="none" 
	d="
M251.608154,196.165619 
	C251.561371,199.628799 251.091263,203.245773 251.111572,206.859985 
	C251.125732,209.379990 251.755585,211.807053 248.586411,212.972580 
	C245.152496,214.235458 241.827927,216.705872 237.637390,213.169937 
	C243.690140,209.786926 250.148514,206.927979 250.092010,198.370148 
	C250.561646,197.418396 250.977936,196.868317 251.608154,196.165619 
z"/>
<path fill="#F1F1F1" opacity="1.000000" stroke="none" 
	d="
M143.965118,117.985489 
	C142.624130,118.256966 141.686356,118.553314 140.728851,118.855896 
	C139.885529,116.543282 139.050812,114.254288 138.278458,112.136314 
	C140.151733,110.788315 142.046570,109.424812 143.819229,108.149223 
	C145.652054,109.431366 147.587891,110.785576 149.411819,112.061485 
	C148.755814,114.124077 148.047882,116.349968 147.260422,118.825882 
	C146.465500,118.601730 145.416931,118.306046 143.965118,117.985489 
z"/>
<path fill="#F1F1F1" opacity="1.000000" stroke="none" 
	d="
M141.938080,290.855042 
	C140.560654,289.983551 139.384735,289.429077 138.137878,288.841125 
	C138.874084,286.685394 139.617554,284.508392 140.371231,282.301544 
	C142.490936,282.301544 144.840973,282.301544 147.268265,282.301544 
	C147.911850,284.256104 148.633759,286.448517 149.280228,288.411774 
	C147.747177,289.660126 146.239822,291.083557 144.513504,292.153778 
	C144.088440,292.417328 142.950043,291.530182 141.938080,290.855042 
z"/>
<path fill="#36383E" opacity="1.000000" stroke="none" 
	d="
M157.394302,204.596069 
	C156.273895,208.080780 155.441406,211.264755 154.142685,214.245621 
	C153.760361,215.123123 151.888855,216.050583 151.009262,215.812393 
	C150.161774,215.582901 149.324432,213.934647 149.157608,212.809647 
	C148.394211,207.661713 153.038513,200.413803 158.664093,198.237320 
	C158.241379,200.416702 157.872772,202.317245 157.394302,204.596069 
z"/>
<path fill="#33353C" opacity="1.000000" stroke="none" 
	d="
M280.459839,204.619507 
	C279.399597,207.976273 278.715271,211.067108 277.455139,213.901962 
	C277.004913,214.914749 275.187683,215.715027 273.941528,215.795715 
	C273.398560,215.830887 272.368561,213.871002 272.168365,212.712036 
	C271.322815,207.817490 276.372467,200.197311 281.758148,198.343018 
	C281.352814,200.426620 280.980682,202.339600 280.459839,204.619507 
z"/>
<path fill="#33353C" opacity="1.000000" stroke="none" 
	d="
M213.157562,200.538940 
	C213.251465,203.291458 213.774506,205.700043 213.295456,207.889328 
	C212.803207,210.138992 211.786285,212.661301 210.166519,214.171478 
	C208.431229,215.789322 204.668503,215.844803 205.308182,212.627090 
	C206.219482,208.043060 209.011292,203.828827 211.104874,199.507523 
	C211.156937,199.400070 212.438553,199.888306 213.157562,200.538940 
z"/>
<path fill="#33353C" opacity="1.000000" stroke="none" 
	d="
M226.954834,178.679932 
	C225.245911,184.834991 223.596069,190.556213 221.946243,196.277435 
	C218.866394,189.828629 222.194092,175.088150 227.013931,171.671921 
	C227.013931,174.186890 227.013931,176.216507 226.954834,178.679932 
z"/>
<path fill="#36383E" opacity="1.000000" stroke="none" 
	d="
M266.917114,179.731995 
	C264.508301,185.562775 262.180084,191.001083 259.851868,196.439392 
	C259.350433,196.218933 258.848969,195.998474 258.347504,195.778000 
	C260.491394,187.878464 260.632721,179.237793 267.943756,173.056625 
	C267.628387,175.150909 267.313049,177.245209 266.917114,179.731995 
z"/>
<path fill="#3F4147" opacity="1.000000" stroke="none" 
	d="
M236.991806,206.545013 
	C237.876205,203.929916 238.553329,201.498825 239.895370,199.518326 
	C240.439713,198.715057 242.432541,198.893372 243.766266,198.625031 
	C243.940338,199.987305 244.739578,202.118073 244.177460,202.575348 
	C242.040771,204.313492 239.464066,205.510742 236.991806,206.545013 
z"/>
</svg>